<svg xmlns="http://www.w3.org/2000/svg" width="900" height="440" viewBox="0 0 900 440">
  <rect width="900" height="440" rx="12" fill="#0d1117"/>
  <path d="M0,12 a12,12 0 0 1 12,-12 h876 a12,12 0 0 1 12,12 v34 h-900 z" fill="#161b22"/>
  <line x1="0" y1="46" x2="900" y2="46" stroke="#30363d" stroke-width="1"/>
  <circle cx="26" cy="23" r="7" fill="#e0645a" opacity="0.85"/>
  <circle cx="48" cy="23" r="7" fill="#e0b04a" opacity="0.85"/>
  <circle cx="70" cy="23" r="7" fill="#5fb87a" opacity="0.85"/>
  <text x="450" y="28" text-anchor="middle" font-family="Menlo, Consolas, monospace" font-size="14" fill="#8b949e">vulcan</text>

  <rect x="0" y="46" width="900" height="394" fill="#000000"/>

  <text x="450" y="78" text-anchor="middle" font-family="Menlo, Consolas, monospace" font-size="14" fill="#c9c9c9">Vulcan - Media Homelab Deploy</text>

  <rect x="120" y="96" width="660" height="290" fill="#00a8a8" stroke="#5fd6d6" stroke-width="2"/>

  <text x="450" y="126" text-anchor="middle" font-family="Menlo, Consolas, monospace" font-size="17" font-weight="bold" fill="#000000">Choose a Tier</text>
  <line x1="150" y1="140" x2="750" y2="140" stroke="#007878" stroke-width="2"/>

  <g font-family="Menlo, Consolas, monospace" font-size="13" fill="#003c3c">
    <text x="150" y="164">Detected: 12 logical cores, 32.0GB RAM, 900.0GB free.</text>
    <text x="150" y="184">Qualifies for Medium. Short of Heavy: 100.0GB free disk (needs 1000GB).</text>
  </g>

  <g font-family="Menlo, Consolas, monospace" font-size="14">
    <text x="150" y="222" fill="#000000">( ) Light - low-resource baseline</text>

    <rect x="140" y="234" width="580" height="26" fill="#c23b3b"/>
    <text x="150" y="252" fill="#ffffff" font-weight="bold">(*) Medium - the common case</text>

    <text x="150" y="282" fill="#000000">( ) Heavy - full stack, GPU transcoding, more services</text>
  </g>

  <rect x="380" y="330" width="90" height="28" fill="#00a8a8" stroke="#003c3c" stroke-width="1.5"/>
  <text x="425" y="349" text-anchor="middle" font-family="Menlo, Consolas, monospace" font-size="13" fill="#000000">&lt;OK&gt;</text>
  <rect x="490" y="330" width="110" height="28" fill="#00a8a8" stroke="#003c3c" stroke-width="1.5"/>
  <text x="545" y="349" text-anchor="middle" font-family="Menlo, Consolas, monospace" font-size="13" fill="#000000">&lt;Cancel&gt;</text>

  <text x="450" y="415" text-anchor="middle" font-family="Menlo, Consolas, monospace" font-size="12" fill="#6e7681">Representative mockup, not a literal capture - real whiptail run pending (see ROADMAP.md)</text>
</svg>
