<svg class="rich-terminal" viewBox="0 0 1238 928.4" xmlns="http://www.w3.org/2000/svg">
    <!-- Generated with Rich https://www.textualize.io -->
    <style>

    @font-face {
        font-family: "Fira Code";
        src: local("FiraCode-Regular"),
                url("https://cdnjs.cloudflare.com/ajax/libs/firacode/6.2.0/woff2/FiraCode-Regular.woff2") format("woff2"),
                url("https://cdnjs.cloudflare.com/ajax/libs/firacode/6.2.0/woff/FiraCode-Regular.woff") format("woff");
        font-style: normal;
        font-weight: 400;
    }
    @font-face {
        font-family: "Fira Code";
        src: local("FiraCode-Bold"),
                url("https://cdnjs.cloudflare.com/ajax/libs/firacode/6.2.0/woff2/FiraCode-Bold.woff2") format("woff2"),
                url("https://cdnjs.cloudflare.com/ajax/libs/firacode/6.2.0/woff/FiraCode-Bold.woff") format("woff");
        font-style: bold;
        font-weight: 700;
    }

    .terminal-435832105-matrix {
        font-family: Fira Code, monospace;
        font-size: 20px;
        line-height: 24.4px;
        font-variant-east-asian: full-width;
    }

    .terminal-435832105-title {
        font-size: 18px;
        font-weight: bold;
        font-family: arial;
    }

    .terminal-435832105-r1 { fill: #e8e8e8 }
.terminal-435832105-r2 { fill: #c5c8c6 }
.terminal-435832105-r3 { fill: #67d2f0 }
.terminal-435832105-r4 { fill: #e8e8e8;font-weight: bold }
.terminal-435832105-r5 { fill: #33a9c6 }
.terminal-435832105-r6 { fill: #377383 }
.terminal-435832105-r7 { fill: #749097;font-weight: bold }
.terminal-435832105-r8 { fill: #1d606f }
    </style>

    <defs>
    <clipPath id="terminal-435832105-clip-terminal">
      <rect x="0" y="0" width="1219.0" height="877.4" />
    </clipPath>
    <clipPath id="terminal-435832105-line-0">
    <rect x="0" y="1.5" width="1220" height="24.65"/>
            </clipPath>
<clipPath id="terminal-435832105-line-1">
    <rect x="0" y="25.9" width="1220" height="24.65"/>
            </clipPath>
<clipPath id="terminal-435832105-line-2">
    <rect x="0" y="50.3" width="1220" height="24.65"/>
            </clipPath>
<clipPath id="terminal-435832105-line-3">
    <rect x="0" y="74.7" width="1220" height="24.65"/>
            </clipPath>
<clipPath id="terminal-435832105-line-4">
    <rect x="0" y="99.1" width="1220" height="24.65"/>
            </clipPath>
<clipPath id="terminal-435832105-line-5">
    <rect x="0" y="123.5" width="1220" height="24.65"/>
            </clipPath>
<clipPath id="terminal-435832105-line-6">
    <rect x="0" y="147.9" width="1220" height="24.65"/>
            </clipPath>
<clipPath id="terminal-435832105-line-7">
    <rect x="0" y="172.3" width="1220" height="24.65"/>
            </clipPath>
<clipPath id="terminal-435832105-line-8">
    <rect x="0" y="196.7" width="1220" height="24.65"/>
            </clipPath>
<clipPath id="terminal-435832105-line-9">
    <rect x="0" y="221.1" width="1220" height="24.65"/>
            </clipPath>
<clipPath id="terminal-435832105-line-10">
    <rect x="0" y="245.5" width="1220" height="24.65"/>
            </clipPath>
<clipPath id="terminal-435832105-line-11">
    <rect x="0" y="269.9" width="1220" height="24.65"/>
            </clipPath>
<clipPath id="terminal-435832105-line-12">
    <rect x="0" y="294.3" width="1220" height="24.65"/>
            </clipPath>
<clipPath id="terminal-435832105-line-13">
    <rect x="0" y="318.7" width="1220" height="24.65"/>
            </clipPath>
<clipPath id="terminal-435832105-line-14">
    <rect x="0" y="343.1" width="1220" height="24.65"/>
            </clipPath>
<clipPath id="terminal-435832105-line-15">
    <rect x="0" y="367.5" width="1220" height="24.65"/>
            </clipPath>
<clipPath id="terminal-435832105-line-16">
    <rect x="0" y="391.9" width="1220" height="24.65"/>
            </clipPath>
<clipPath id="terminal-435832105-line-17">
    <rect x="0" y="416.3" width="1220" height="24.65"/>
            </clipPath>
<clipPath id="terminal-435832105-line-18">
    <rect x="0" y="440.7" width="1220" height="24.65"/>
            </clipPath>
<clipPath id="terminal-435832105-line-19">
    <rect x="0" y="465.1" width="1220" height="24.65"/>
            </clipPath>
<clipPath id="terminal-435832105-line-20">
    <rect x="0" y="489.5" width="1220" height="24.65"/>
            </clipPath>
<clipPath id="terminal-435832105-line-21">
    <rect x="0" y="513.9" width="1220" height="24.65"/>
            </clipPath>
<clipPath id="terminal-435832105-line-22">
    <rect x="0" y="538.3" width="1220" height="24.65"/>
            </clipPath>
<clipPath id="terminal-435832105-line-23">
    <rect x="0" y="562.7" width="1220" height="24.65"/>
            </clipPath>
<clipPath id="terminal-435832105-line-24">
    <rect x="0" y="587.1" width="1220" height="24.65"/>
            </clipPath>
<clipPath id="terminal-435832105-line-25">
    <rect x="0" y="611.5" width="1220" height="24.65"/>
            </clipPath>
<clipPath id="terminal-435832105-line-26">
    <rect x="0" y="635.9" width="1220" height="24.65"/>
            </clipPath>
<clipPath id="terminal-435832105-line-27">
    <rect x="0" y="660.3" width="1220" height="24.65"/>
            </clipPath>
<clipPath id="terminal-435832105-line-28">
    <rect x="0" y="684.7" width="1220" height="24.65"/>
            </clipPath>
<clipPath id="terminal-435832105-line-29">
    <rect x="0" y="709.1" width="1220" height="24.65"/>
            </clipPath>
<clipPath id="terminal-435832105-line-30">
    <rect x="0" y="733.5" width="1220" height="24.65"/>
            </clipPath>
<clipPath id="terminal-435832105-line-31">
    <rect x="0" y="757.9" width="1220" height="24.65"/>
            </clipPath>
<clipPath id="terminal-435832105-line-32">
    <rect x="0" y="782.3" width="1220" height="24.65"/>
            </clipPath>
<clipPath id="terminal-435832105-line-33">
    <rect x="0" y="806.7" width="1220" height="24.65"/>
            </clipPath>
<clipPath id="terminal-435832105-line-34">
    <rect x="0" y="831.1" width="1220" height="24.65"/>
            </clipPath>
    </defs>

    <rect fill="#292929" stroke="rgba(255,255,255,0.35)" stroke-width="1" x="1" y="1" width="1236" height="926.4" rx="8"/><text class="terminal-435832105-title" fill="#c5c8c6" text-anchor="middle" x="618" y="27">Vulcan</text>
            <g transform="translate(26,22)">
            <circle cx="0" cy="0" r="7" fill="#ff5f57"/>
            <circle cx="22" cy="0" r="7" fill="#febc2e"/>
            <circle cx="44" cy="0" r="7" fill="#28c840"/>
            </g>
        
    <g transform="translate(9, 41)" clip-path="url(#terminal-435832105-clip-terminal)">
    <rect fill="#0a1a1d" x="0" y="1.5" width="73.2" height="24.65" shape-rendering="crispEdges"/><rect fill="#0a1a1d" x="73.2" y="1.5" width="1146.8" height="24.65" shape-rendering="crispEdges"/><rect fill="#0a1a1d" x="0" y="25.9" width="0" height="24.65" shape-rendering="crispEdges"/><rect fill="#0a1a1d" x="0" y="25.9" width="1220" height="24.65" shape-rendering="crispEdges"/><rect fill="#4fbedb" x="0" y="50.3" width="732" height="24.65" shape-rendering="crispEdges"/><rect fill="#0a1a1d" x="732" y="50.3" width="488" height="24.65" shape-rendering="crispEdges"/><rect fill="#4fbedb" x="0" y="74.7" width="280.6" height="24.65" shape-rendering="crispEdges"/><rect fill="#4fbedb" x="280.6" y="74.7" width="170.8" height="24.65" shape-rendering="crispEdges"/><rect fill="#4fbedb" x="451.4" y="74.7" width="280.6" height="24.65" shape-rendering="crispEdges"/><rect fill="#0a1a1d" x="732" y="74.7" width="488" height="24.65" shape-rendering="crispEdges"/><rect fill="#4fbedb" x="0" y="99.1" width="732" height="24.65" shape-rendering="crispEdges"/><rect fill="#0a1a1d" x="732" y="99.1" width="488" height="24.65" shape-rendering="crispEdges"/><rect fill="#0a1a1d" x="0" y="123.5" width="1220" height="24.65" shape-rendering="crispEdges"/><rect fill="#2b697a" x="0" y="147.9" width="732" height="24.65" shape-rendering="crispEdges"/><rect fill="#0a1a1d" x="732" y="147.9" width="488" height="24.65" shape-rendering="crispEdges"/><rect fill="#2b697a" x="0" y="172.3" width="280.6" height="24.65" shape-rendering="crispEdges"/><rect fill="#2b697a" x="280.6" y="172.3" width="170.8" height="24.65" shape-rendering="crispEdges"/><rect fill="#2b697a" x="451.4" y="172.3" width="280.6" height="24.65" shape-rendering="crispEdges"/><rect fill="#0a1a1d" x="732" y="172.3" width="488" height="24.65" shape-rendering="crispEdges"/><rect fill="#2b697a" x="0" y="196.7" width="732" height="24.65" shape-rendering="crispEdges"/><rect fill="#0a1a1d" x="732" y="196.7" width="488" height="24.65" shape-rendering="crispEdges"/><rect fill="#0a1a1d" x="0" y="221.1" width="1220" height="24.65" shape-rendering="crispEdges"/><rect fill="#2b697a" x="0" y="245.5" width="732" height="24.65" shape-rendering="crispEdges"/><rect fill="#0a1a1d" x="732" y="245.5" width="488" height="24.65" shape-rendering="crispEdges"/><rect fill="#2b697a" x="0" y="269.9" width="280.6" height="24.65" shape-rendering="crispEdges"/><rect fill="#2b697a" x="280.6" y="269.9" width="158.6" height="24.65" shape-rendering="crispEdges"/><rect fill="#2b697a" x="439.2" y="269.9" width="292.8" height="24.65" shape-rendering="crispEdges"/><rect fill="#0a1a1d" x="732" y="269.9" width="488" height="24.65" shape-rendering="crispEdges"/><rect fill="#2b697a" x="0" y="294.3" width="732" height="24.65" shape-rendering="crispEdges"/><rect fill="#0a1a1d" x="732" y="294.3" width="488" height="24.65" shape-rendering="crispEdges"/><rect fill="#0a1a1d" x="0" y="318.7" width="1220" height="24.65" shape-rendering="crispEdges"/><rect fill="#2b697a" x="0" y="343.1" width="732" height="24.65" shape-rendering="crispEdges"/><rect fill="#0a1a1d" x="732" y="343.1" width="488" height="24.65" shape-rendering="crispEdges"/><rect fill="#2b697a" x="0" y="367.5" width="280.6" height="24.65" shape-rendering="crispEdges"/><rect fill="#2b697a" x="280.6" y="367.5" width="170.8" height="24.65" shape-rendering="crispEdges"/><rect fill="#2b697a" x="451.4" y="367.5" width="280.6" height="24.65" shape-rendering="crispEdges"/><rect fill="#0a1a1d" x="732" y="367.5" width="488" height="24.65" shape-rendering="crispEdges"/><rect fill="#2b697a" x="0" y="391.9" width="732" height="24.65" shape-rendering="crispEdges"/><rect fill="#0a1a1d" x="732" y="391.9" width="488" height="24.65" shape-rendering="crispEdges"/><rect fill="#0a1a1d" x="0" y="416.3" width="1220" height="24.65" shape-rendering="crispEdges"/><rect fill="#2b697a" x="0" y="440.7" width="732" height="24.65" shape-rendering="crispEdges"/><rect fill="#0a1a1d" x="732" y="440.7" width="488" height="24.65" shape-rendering="crispEdges"/><rect fill="#2b697a" x="0" y="465.1" width="268.4" height="24.65" shape-rendering="crispEdges"/><rect fill="#2b697a" x="268.4" y="465.1" width="183" height="24.65" shape-rendering="crispEdges"/><rect fill="#2b697a" x="451.4" y="465.1" width="280.6" height="24.65" shape-rendering="crispEdges"/><rect fill="#0a1a1d" x="732" y="465.1" width="488" height="24.65" shape-rendering="crispEdges"/><rect fill="#2b697a" x="0" y="489.5" width="732" height="24.65" shape-rendering="crispEdges"/><rect fill="#0a1a1d" x="732" y="489.5" width="488" height="24.65" shape-rendering="crispEdges"/><rect fill="#0a1a1d" x="0" y="513.9" width="1220" height="24.65" shape-rendering="crispEdges"/><rect fill="#2b697a" x="0" y="538.3" width="732" height="24.65" shape-rendering="crispEdges"/><rect fill="#0a1a1d" x="732" y="538.3" width="488" height="24.65" shape-rendering="crispEdges"/><rect fill="#2b697a" x="0" y="562.7" width="256.2" height="24.65" shape-rendering="crispEdges"/><rect fill="#2b697a" x="256.2" y="562.7" width="207.4" height="24.65" shape-rendering="crispEdges"/><rect fill="#2b697a" x="463.6" y="562.7" width="268.4" height="24.65" shape-rendering="crispEdges"/><rect fill="#0a1a1d" x="732" y="562.7" width="488" height="24.65" shape-rendering="crispEdges"/><rect fill="#2b697a" x="0" y="587.1" width="732" height="24.65" shape-rendering="crispEdges"/><rect fill="#0a1a1d" x="732" y="587.1" width="488" height="24.65" shape-rendering="crispEdges"/><rect fill="#0a1a1d" x="0" y="611.5" width="1220" height="24.65" shape-rendering="crispEdges"/><rect fill="#4fbedb" x="0" y="635.9" width="732" height="24.65" shape-rendering="crispEdges"/><rect fill="#0a1a1d" x="732" y="635.9" width="488" height="24.65" shape-rendering="crispEdges"/><rect fill="#4fbedb" x="0" y="660.3" width="329.4" height="24.65" shape-rendering="crispEdges"/><rect fill="#4fbedb" x="329.4" y="660.3" width="73.2" height="24.65" shape-rendering="crispEdges"/><rect fill="#4fbedb" x="402.6" y="660.3" width="329.4" height="24.65" shape-rendering="crispEdges"/><rect fill="#0a1a1d" x="732" y="660.3" width="488" height="24.65" shape-rendering="crispEdges"/><rect fill="#4fbedb" x="0" y="684.7" width="732" height="24.65" shape-rendering="crispEdges"/><rect fill="#0a1a1d" x="732" y="684.7" width="488" height="24.65" shape-rendering="crispEdges"/><rect fill="#0a1a1d" x="0" y="709.1" width="1220" height="24.65" shape-rendering="crispEdges"/><rect fill="#0a1a1d" x="0" y="733.5" width="1220" height="24.65" shape-rendering="crispEdges"/><rect fill="#0a1a1d" x="0" y="757.9" width="1220" height="24.65" shape-rendering="crispEdges"/><rect fill="#0a1a1d" x="0" y="782.3" width="1220" height="24.65" shape-rendering="crispEdges"/><rect fill="#0a1a1d" x="0" y="806.7" width="1220" height="24.65" shape-rendering="crispEdges"/><rect fill="#0a1a1d" x="0" y="831.1" width="1220" height="24.65" shape-rendering="crispEdges"/><rect fill="#0a1a1d" x="0" y="855.5" width="1220" height="24.65" shape-rendering="crispEdges"/>
    <g class="terminal-435832105-matrix">
    <text class="terminal-435832105-r1" x="0" y="20" textLength="73.2" clip-path="url(#terminal-435832105-line-0)">Vulcan</text><text class="terminal-435832105-r2" x="1220" y="20" textLength="12.2" clip-path="url(#terminal-435832105-line-0)">
</text><text class="terminal-435832105-r2" x="1220" y="44.4" textLength="12.2" clip-path="url(#terminal-435832105-line-1)">
</text><text class="terminal-435832105-r3" x="0" y="68.8" textLength="732" clip-path="url(#terminal-435832105-line-2)">▔▔▔▔▔▔▔▔▔▔▔▔▔▔▔▔▔▔▔▔▔▔▔▔▔▔▔▔▔▔▔▔▔▔▔▔▔▔▔▔▔▔▔▔▔▔▔▔▔▔▔▔▔▔▔▔▔▔▔▔</text><text class="terminal-435832105-r2" x="1220" y="68.8" textLength="12.2" clip-path="url(#terminal-435832105-line-2)">
</text><text class="terminal-435832105-r4" x="280.6" y="93.2" textLength="170.8" clip-path="url(#terminal-435832105-line-3)">&#160;Guided&#160;Setup&#160;</text><text class="terminal-435832105-r2" x="1220" y="93.2" textLength="12.2" clip-path="url(#terminal-435832105-line-3)">
</text><text class="terminal-435832105-r5" x="0" y="117.6" textLength="732" clip-path="url(#terminal-435832105-line-4)">▁▁▁▁▁▁▁▁▁▁▁▁▁▁▁▁▁▁▁▁▁▁▁▁▁▁▁▁▁▁▁▁▁▁▁▁▁▁▁▁▁▁▁▁▁▁▁▁▁▁▁▁▁▁▁▁▁▁▁▁</text><text class="terminal-435832105-r2" x="1220" y="117.6" textLength="12.2" clip-path="url(#terminal-435832105-line-4)">
</text><text class="terminal-435832105-r2" x="1220" y="142" textLength="12.2" clip-path="url(#terminal-435832105-line-5)">
</text><text class="terminal-435832105-r6" x="0" y="166.4" textLength="732" clip-path="url(#terminal-435832105-line-6)">▔▔▔▔▔▔▔▔▔▔▔▔▔▔▔▔▔▔▔▔▔▔▔▔▔▔▔▔▔▔▔▔▔▔▔▔▔▔▔▔▔▔▔▔▔▔▔▔▔▔▔▔▔▔▔▔▔▔▔▔</text><text class="terminal-435832105-r2" x="1220" y="166.4" textLength="12.2" clip-path="url(#terminal-435832105-line-6)">
</text><text class="terminal-435832105-r7" x="280.6" y="190.8" textLength="170.8" clip-path="url(#terminal-435832105-line-7)">&#160;Update&#160;Stack&#160;</text><text class="terminal-435832105-r2" x="1220" y="190.8" textLength="12.2" clip-path="url(#terminal-435832105-line-7)">
</text><text class="terminal-435832105-r8" x="0" y="215.2" textLength="732" clip-path="url(#terminal-435832105-line-8)">▁▁▁▁▁▁▁▁▁▁▁▁▁▁▁▁▁▁▁▁▁▁▁▁▁▁▁▁▁▁▁▁▁▁▁▁▁▁▁▁▁▁▁▁▁▁▁▁▁▁▁▁▁▁▁▁▁▁▁▁</text><text class="terminal-435832105-r2" x="1220" y="215.2" textLength="12.2" clip-path="url(#terminal-435832105-line-8)">
</text><text class="terminal-435832105-r2" x="1220" y="239.6" textLength="12.2" clip-path="url(#terminal-435832105-line-9)">
</text><text class="terminal-435832105-r6" x="0" y="264" textLength="732" clip-path="url(#terminal-435832105-line-10)">▔▔▔▔▔▔▔▔▔▔▔▔▔▔▔▔▔▔▔▔▔▔▔▔▔▔▔▔▔▔▔▔▔▔▔▔▔▔▔▔▔▔▔▔▔▔▔▔▔▔▔▔▔▔▔▔▔▔▔▔</text><text class="terminal-435832105-r2" x="1220" y="264" textLength="12.2" clip-path="url(#terminal-435832105-line-10)">
</text><text class="terminal-435832105-r7" x="280.6" y="288.4" textLength="158.6" clip-path="url(#terminal-435832105-line-11)">&#160;Pull&#160;Images&#160;</text><text class="terminal-435832105-r2" x="1220" y="288.4" textLength="12.2" clip-path="url(#terminal-435832105-line-11)">
</text><text class="terminal-435832105-r8" x="0" y="312.8" textLength="732" clip-path="url(#terminal-435832105-line-12)">▁▁▁▁▁▁▁▁▁▁▁▁▁▁▁▁▁▁▁▁▁▁▁▁▁▁▁▁▁▁▁▁▁▁▁▁▁▁▁▁▁▁▁▁▁▁▁▁▁▁▁▁▁▁▁▁▁▁▁▁</text><text class="terminal-435832105-r2" x="1220" y="312.8" textLength="12.2" clip-path="url(#terminal-435832105-line-12)">
</text><text class="terminal-435832105-r2" x="1220" y="337.2" textLength="12.2" clip-path="url(#terminal-435832105-line-13)">
</text><text class="terminal-435832105-r6" x="0" y="361.6" textLength="732" clip-path="url(#terminal-435832105-line-14)">▔▔▔▔▔▔▔▔▔▔▔▔▔▔▔▔▔▔▔▔▔▔▔▔▔▔▔▔▔▔▔▔▔▔▔▔▔▔▔▔▔▔▔▔▔▔▔▔▔▔▔▔▔▔▔▔▔▔▔▔</text><text class="terminal-435832105-r2" x="1220" y="361.6" textLength="12.2" clip-path="url(#terminal-435832105-line-14)">
</text><text class="terminal-435832105-r7" x="280.6" y="386" textLength="170.8" clip-path="url(#terminal-435832105-line-15)">&#160;Backup&#160;Stack&#160;</text><text class="terminal-435832105-r2" x="1220" y="386" textLength="12.2" clip-path="url(#terminal-435832105-line-15)">
</text><text class="terminal-435832105-r8" x="0" y="410.4" textLength="732" clip-path="url(#terminal-435832105-line-16)">▁▁▁▁▁▁▁▁▁▁▁▁▁▁▁▁▁▁▁▁▁▁▁▁▁▁▁▁▁▁▁▁▁▁▁▁▁▁▁▁▁▁▁▁▁▁▁▁▁▁▁▁▁▁▁▁▁▁▁▁</text><text class="terminal-435832105-r2" x="1220" y="410.4" textLength="12.2" clip-path="url(#terminal-435832105-line-16)">
</text><text class="terminal-435832105-r2" x="1220" y="434.8" textLength="12.2" clip-path="url(#terminal-435832105-line-17)">
</text><text class="terminal-435832105-r6" x="0" y="459.2" textLength="732" clip-path="url(#terminal-435832105-line-18)">▔▔▔▔▔▔▔▔▔▔▔▔▔▔▔▔▔▔▔▔▔▔▔▔▔▔▔▔▔▔▔▔▔▔▔▔▔▔▔▔▔▔▔▔▔▔▔▔▔▔▔▔▔▔▔▔▔▔▔▔</text><text class="terminal-435832105-r2" x="1220" y="459.2" textLength="12.2" clip-path="url(#terminal-435832105-line-18)">
</text><text class="terminal-435832105-r7" x="268.4" y="483.6" textLength="183" clip-path="url(#terminal-435832105-line-19)">&#160;Restore&#160;Stack&#160;</text><text class="terminal-435832105-r2" x="1220" y="483.6" textLength="12.2" clip-path="url(#terminal-435832105-line-19)">
</text><text class="terminal-435832105-r8" x="0" y="508" textLength="732" clip-path="url(#terminal-435832105-line-20)">▁▁▁▁▁▁▁▁▁▁▁▁▁▁▁▁▁▁▁▁▁▁▁▁▁▁▁▁▁▁▁▁▁▁▁▁▁▁▁▁▁▁▁▁▁▁▁▁▁▁▁▁▁▁▁▁▁▁▁▁</text><text class="terminal-435832105-r2" x="1220" y="508" textLength="12.2" clip-path="url(#terminal-435832105-line-20)">
</text><text class="terminal-435832105-r2" x="1220" y="532.4" textLength="12.2" clip-path="url(#terminal-435832105-line-21)">
</text><text class="terminal-435832105-r6" x="0" y="556.8" textLength="732" clip-path="url(#terminal-435832105-line-22)">▔▔▔▔▔▔▔▔▔▔▔▔▔▔▔▔▔▔▔▔▔▔▔▔▔▔▔▔▔▔▔▔▔▔▔▔▔▔▔▔▔▔▔▔▔▔▔▔▔▔▔▔▔▔▔▔▔▔▔▔</text><text class="terminal-435832105-r2" x="1220" y="556.8" textLength="12.2" clip-path="url(#terminal-435832105-line-22)">
</text><text class="terminal-435832105-r7" x="256.2" y="581.2" textLength="207.4" clip-path="url(#terminal-435832105-line-23)">&#160;Uninstall&#160;Stack&#160;</text><text class="terminal-435832105-r2" x="1220" y="581.2" textLength="12.2" clip-path="url(#terminal-435832105-line-23)">
</text><text class="terminal-435832105-r8" x="0" y="605.6" textLength="732" clip-path="url(#terminal-435832105-line-24)">▁▁▁▁▁▁▁▁▁▁▁▁▁▁▁▁▁▁▁▁▁▁▁▁▁▁▁▁▁▁▁▁▁▁▁▁▁▁▁▁▁▁▁▁▁▁▁▁▁▁▁▁▁▁▁▁▁▁▁▁</text><text class="terminal-435832105-r2" x="1220" y="605.6" textLength="12.2" clip-path="url(#terminal-435832105-line-24)">
</text><text class="terminal-435832105-r2" x="1220" y="630" textLength="12.2" clip-path="url(#terminal-435832105-line-25)">
</text><text class="terminal-435832105-r3" x="0" y="654.4" textLength="732" clip-path="url(#terminal-435832105-line-26)">▔▔▔▔▔▔▔▔▔▔▔▔▔▔▔▔▔▔▔▔▔▔▔▔▔▔▔▔▔▔▔▔▔▔▔▔▔▔▔▔▔▔▔▔▔▔▔▔▔▔▔▔▔▔▔▔▔▔▔▔</text><text class="terminal-435832105-r2" x="1220" y="654.4" textLength="12.2" clip-path="url(#terminal-435832105-line-26)">
</text><text class="terminal-435832105-r4" x="329.4" y="678.8" textLength="73.2" clip-path="url(#terminal-435832105-line-27)">&#160;Exit&#160;</text><text class="terminal-435832105-r2" x="1220" y="678.8" textLength="12.2" clip-path="url(#terminal-435832105-line-27)">
</text><text class="terminal-435832105-r5" x="0" y="703.2" textLength="732" clip-path="url(#terminal-435832105-line-28)">▁▁▁▁▁▁▁▁▁▁▁▁▁▁▁▁▁▁▁▁▁▁▁▁▁▁▁▁▁▁▁▁▁▁▁▁▁▁▁▁▁▁▁▁▁▁▁▁▁▁▁▁▁▁▁▁▁▁▁▁</text><text class="terminal-435832105-r2" x="1220" y="703.2" textLength="12.2" clip-path="url(#terminal-435832105-line-28)">
</text><text class="terminal-435832105-r2" x="1220" y="727.6" textLength="12.2" clip-path="url(#terminal-435832105-line-29)">
</text><text class="terminal-435832105-r2" x="1220" y="752" textLength="12.2" clip-path="url(#terminal-435832105-line-30)">
</text><text class="terminal-435832105-r2" x="1220" y="776.4" textLength="12.2" clip-path="url(#terminal-435832105-line-31)">
</text><text class="terminal-435832105-r2" x="1220" y="800.8" textLength="12.2" clip-path="url(#terminal-435832105-line-32)">
</text><text class="terminal-435832105-r2" x="1220" y="825.2" textLength="12.2" clip-path="url(#terminal-435832105-line-33)">
</text><text class="terminal-435832105-r2" x="1220" y="849.6" textLength="12.2" clip-path="url(#terminal-435832105-line-34)">
</text>
    </g>
    </g>
</svg>
